<svg width="120" height="120" viewBox="0 0 120 120" fill="none" xmlns="http://www.w3.org/2000/svg">
<g clip-path="url(#clip0_19_196)">
<path d="M0 104.527C0 113.073 6.92766 120 15.473 120H104.527C113.073 120 120 113.072 120 104.527V15.4734C120 6.92672 113.072 0 104.527 0H15.4734C6.92672 0 0 6.92766 0 15.473V104.527Z" fill="#563D7C"/>
<path d="M49.7616 53.0803V36.0867H64.7198C66.1448 36.0867 67.5183 36.2053 68.8411 36.443C70.1639 36.6802 71.3344 37.1039 72.352 37.7147C73.3692 38.3255 74.1834 39.1734 74.7942 40.2586C75.4045 41.3442 75.7102 42.735 75.7102 44.4305C75.7102 47.4834 74.7942 49.6884 72.9623 51.045C71.1309 52.402 68.7905 53.0803 65.9409 53.0803H49.7616ZM33.7852 23.6719V96.3281H68.9939C72.2503 96.3281 75.4219 95.9213 78.5086 95.107C81.5953 94.2928 84.3427 93.038 86.7511 91.342C89.1591 89.6461 91.0758 87.458 92.5003 84.7786C93.9253 82.0987 94.6373 78.9272 94.6373 75.2639C94.6373 70.7184 93.5348 66.8348 91.3303 63.6127C89.1253 60.39 85.7841 58.1344 81.3066 56.8453C84.563 55.2853 87.0225 53.2837 88.6847 50.8416C90.3464 48.3994 91.1775 45.3469 91.1775 41.6831C91.1775 38.2913 90.6178 35.4422 89.4984 33.1355C88.3791 30.8292 86.8017 28.9805 84.7664 27.5897C82.7316 26.1989 80.2894 25.1981 77.4398 24.5878C74.5908 23.977 71.4361 23.6719 67.9763 23.6719H33.7852ZM49.7616 83.9133V63.9684H67.162C70.6219 63.9684 73.4034 64.7653 75.5067 66.36C77.6095 67.9542 78.6614 70.6167 78.6614 74.348C78.6614 76.2478 78.3389 77.8078 77.6944 79.0289C77.0498 80.25 76.185 81.217 75.0994 81.9291C74.0142 82.6416 72.7589 83.1502 71.3344 83.4558C69.9094 83.7605 68.4173 83.9133 66.8569 83.9133H49.7616Z" fill="white"/>
</g>
<defs>
<clipPath id="clip0_19_196">
<rect width="120" height="120" fill="white"/>
</clipPath>
</defs>
</svg>
