<svg width="120" height="120" viewBox="0 0 120 120" fill="none" xmlns="http://www.w3.org/2000/svg">
<path d="M40 120C51.04 120 60 111.04 60 100V80H40C28.96 80 20 88.96 20 100C20 111.04 28.96 120 40 120Z" fill="#0ACF83"/>
<path d="M20 60C20 48.96 28.96 40 40 40H60V80H40C28.96 80 20 71.04 20 60Z" fill="#A259FF"/>
<path d="M20 20C20 8.96 28.96 0 40 0H60V40H40C28.96 40 20 31.04 20 20Z" fill="#F24E1E"/>
<path d="M60 0H80C91.04 0 100 8.96 100 20C100 31.04 91.04 40 80 40H60V0Z" fill="#FF7262"/>
<path d="M100 60C100 71.04 91.04 80 80 80C68.96 80 60 71.04 60 60C60 48.96 68.96 40 80 40C91.04 40 100 48.96 100 60Z" fill="#1ABCFE"/>
</svg>
