<svg width="25" height="24" viewBox="0 0 25 24" fill="none" xmlns="http://www.w3.org/2000/svg">
<g clip-path="url(#clip0_1_6320)">
<path d="M12.7034 0C6.07337 0 0.703369 5.37 0.703369 12C0.703369 17.31 4.13837 21.795 8.90837 23.385C9.50837 23.49 9.73337 23.13 9.73337 22.815C9.73337 22.53 9.71837 21.585 9.71837 20.58C6.70337 21.135 5.92337 19.845 5.68337 19.17C5.54837 18.825 4.96337 17.76 4.45337 17.475C4.03337 17.25 3.43337 16.695 4.43837 16.68C5.38337 16.665 6.05837 17.55 6.28337 17.91C7.36337 19.725 9.08837 19.215 9.77837 18.9C9.88337 18.12 10.1984 17.595 10.5434 17.295C7.87337 16.995 5.08337 15.96 5.08337 11.37C5.08337 10.065 5.54837 8.985 6.31337 8.145C6.19337 7.845 5.77337 6.615 6.43337 4.965C6.43337 4.965 7.43837 4.65 9.73337 6.195C10.6934 5.925 11.7134 5.79 12.7334 5.79C13.7534 5.79 14.7734 5.925 15.7334 6.195C18.0284 4.635 19.0334 4.965 19.0334 4.965C19.6934 6.615 19.2734 7.845 19.1534 8.145C19.9184 8.985 20.3834 10.05 20.3834 11.37C20.3834 15.975 17.5784 16.995 14.9084 17.295C15.3434 17.67 15.7184 18.39 15.7184 19.515C15.7184 21.12 15.7034 22.41 15.7034 22.815C15.7034 23.13 15.9284 23.505 16.5284 23.385C18.9107 22.581 20.9809 21.05 22.4474 19.0076C23.9139 16.9653 24.703 14.5144 24.7034 12C24.7034 5.37 19.3334 0 12.7034 0Z" fill="#008985"/>
</g>
<defs>
<clipPath id="clip0_1_6320">
<rect width="24" height="24" fill="white" transform="translate(0.703369)"/>
</clipPath>
</defs>
</svg>
