<svg width="120" height="120" viewBox="0 0 120 120" fill="none" xmlns="http://www.w3.org/2000/svg">
<path d="M16.6406 107.812L7.03125 0H112.734L103.125 107.812L59.7656 120" fill="#E34F26"/>
<path d="M60 110.625L94.9219 101.016L103.125 8.67188H60" fill="#EF652A"/>
<path d="M60 48.75H42.4219L41.25 35.1562H60V22.0312H26.7188L30.2344 62.1094H60V48.75ZM59.7656 83.2031L45 79.2188L44.0625 68.6719H30.9375L32.5781 89.5312L59.7656 97.0312V83.2031Z" fill="#EBEBEB"/>
<path d="M59.7656 48.75V62.1094H76.1719L74.5312 79.2188L59.7656 83.2031V97.0312L86.9531 89.5312L90.7031 48.75H59.7656ZM59.7656 22.0312V35.1562H91.875L93.0469 22.0312H59.7656Z" fill="white"/>
</svg>
