<svg width="120" height="121" viewBox="0 0 120 121" fill="none" xmlns="http://www.w3.org/2000/svg">
<path d="M119.518 58.2289C118.663 57.373 107.68 43.5379 105.827 41.2552C103.83 38.9733 102.974 39.4013 101.694 39.5433C100.414 39.6854 86.575 42.1111 85.0061 42.2532C83.4372 42.5382 82.4384 43.1091 83.4372 44.5351C84.2932 45.8189 93.4258 58.6569 95.4184 61.6509L59.047 70.3478L30.2308 21.9996C29.0898 20.2886 28.804 19.7177 26.2371 19.8607C23.6702 20.0036 3.5578 21.7146 2.13184 21.7146C0.70588 21.8575 -0.865601 22.4276 0.56294 25.8512C1.99148 29.2749 24.8102 78.3396 25.3811 79.7664C25.952 81.1932 27.663 83.4751 31.5147 82.6191C35.5084 81.6203 49.2013 78.0554 56.7608 76.0577C60.7545 83.1892 68.742 97.7381 70.3109 99.877C72.3077 102.73 73.7337 102.159 76.7294 101.303C79.1542 100.59 114.101 88.0423 115.669 87.325C117.237 86.6077 118.236 86.184 117.094 84.6151C116.239 83.4742 107.106 71.0651 102.261 64.6466C105.541 63.7906 117.38 60.6529 118.663 60.2249C120.089 59.7944 120.375 59.084 119.519 58.228L119.518 58.2289ZM53.4792 71.7755C53.0487 71.9184 32.6547 76.7698 31.6567 77.0531C30.5158 77.3381 30.5158 77.196 30.5158 76.7681C30.2308 76.3392 6.26849 26.7071 5.84053 26.138C5.55551 25.5671 5.55551 24.997 5.84053 24.997C6.12555 24.997 25.0953 23.2835 25.6662 23.2835C26.3791 23.2835 26.2371 23.4264 26.5221 23.8544C26.5221 23.8544 53.1942 69.9224 53.6222 70.638C54.1931 71.351 53.9072 71.6369 53.4792 71.7789V71.7755ZM110.817 82.4762C111.102 83.0471 111.53 83.3321 110.387 83.6171C109.389 84.0477 76.0121 95.3133 75.2991 95.5983C74.5861 95.8833 74.1582 96.0288 73.3023 94.7424C72.4464 93.4559 61.6061 74.7738 61.6061 74.7738L97.1259 65.5025C97.9818 65.2175 98.2669 65.0719 98.8378 65.933C99.4087 66.9319 110.534 82.0508 110.819 82.4788L110.817 82.4762ZM113.099 57.373C112.243 57.5159 99.264 60.7958 99.264 60.7958L88.5667 46.2435C88.2817 45.8129 87.9958 45.3875 88.7097 45.2446C89.4235 45.1017 101.547 42.9627 102.117 42.8198C102.687 42.6768 103.116 42.5348 103.829 43.5328C104.542 44.3887 113.67 56.0848 114.098 56.5128C114.526 56.9407 113.955 57.2257 113.099 57.3687V57.373Z" fill="#FB503B"/>
</svg>
