<svg width="119" height="32" viewBox="0 0 119 32" fill="none" xmlns="http://www.w3.org/2000/svg">
<path d="M6.20018 12.8176L6.21302 12.8048L8.75617 15.3479C9.43635 16.0298 9.81832 16.9536 9.81832 17.9168C9.81832 18.8799 9.43635 19.8037 8.75617 20.4856L3.63134 25.6096L1.0625 23.0407C0.382119 22.359 0 21.4351 0 20.4719C0 19.5087 0.382119 18.5848 1.0625 17.9031L6.16164 12.8039L6.18733 12.8296L6.20018 12.8176Z" fill="#008985"/>
<path d="M20.3452 24.2934C21.0256 24.9752 21.4077 25.8991 21.4077 26.8623C21.4077 27.8255 21.0256 28.7493 20.3452 29.4311L17.7763 31.9999L12.6515 26.8742C11.9713 26.1924 11.5894 25.2685 11.5894 24.3054C11.5894 23.3423 11.9713 22.4185 12.6515 21.7366L15.1947 19.1934L15.2084 19.2063L15.2203 19.2191L15.2332 19.2063L15.246 19.1934L20.3452 24.2934Z" fill="#008985"/>
<path d="M15.2075 19.1816L15.1947 19.1944L12.6515 16.6513C11.9713 15.9694 11.5894 15.0456 11.5894 14.0825C11.5894 13.1193 11.9713 12.1955 12.6515 11.5136L17.7763 6.38965L20.3452 8.95849C21.0256 9.64027 21.4077 10.5641 21.4077 11.5273C21.4077 12.4905 21.0256 13.4144 20.3452 14.0962L15.246 19.1953L15.234 19.1825L15.2203 19.1696L15.2075 19.1816Z" fill="#008985"/>
<path d="M8.75588 10.2625L6.21273 12.8057L6.19989 12.7928L6.18704 12.78L6.1742 12.7928L6.16135 12.8057L1.06221 7.70651C0.382037 7.02462 6.10352e-05 6.1008 6.10352e-05 5.13767C6.10352e-05 4.17455 0.382037 3.25073 1.06221 2.56884L3.63105 0L8.75588 5.12483C9.43606 5.80672 9.81803 6.73054 9.81803 7.69367C9.81803 8.6568 9.43606 9.58061 8.75588 10.2625Z" fill="#FFB000"/>
<path d="M26.1092 23.3409C25.2443 22.9658 24.5779 22.4289 24.1098 21.7302C23.6417 21.0315 23.4076 20.2186 23.4076 19.2915V18.806C23.4069 18.7713 23.4131 18.7367 23.4261 18.7045C23.439 18.6723 23.4584 18.643 23.483 18.6185C23.5065 18.5935 23.5349 18.5738 23.5664 18.5603C23.598 18.5469 23.632 18.5402 23.6662 18.5406H26.1314C26.1657 18.5402 26.1997 18.5469 26.2312 18.5603C26.2628 18.5738 26.2912 18.5935 26.3147 18.6185C26.3394 18.6429 26.3589 18.6722 26.372 18.7044C26.3851 18.7367 26.3916 18.7712 26.3909 18.806V19.1365C26.3909 19.7256 26.6575 20.2223 27.1907 20.6264C27.7238 21.0306 28.4443 21.233 29.3519 21.2336C30.1157 21.2336 30.6866 21.068 31.0645 20.7369C31.2421 20.5869 31.3842 20.3993 31.4806 20.1877C31.577 19.9761 31.6253 19.7458 31.6219 19.5133C31.6263 19.3492 31.5984 19.1859 31.5396 19.0326C31.4808 18.8794 31.3924 18.7392 31.2794 18.6202C31.0085 18.3493 30.689 18.132 30.3375 17.9797C29.9413 17.7953 29.3108 17.5416 28.446 17.2185C27.6039 16.9325 26.7837 16.5856 25.9919 16.1806C25.3277 15.8327 24.7512 15.3384 24.3059 14.7353C23.8492 14.125 23.6208 13.3709 23.6208 12.473C23.6208 11.5899 23.844 10.8172 24.2904 10.155C24.7543 9.4791 25.4021 8.95018 26.1571 8.63084C26.9495 8.27691 27.8646 8.10023 28.9024 8.1008C29.9973 8.1008 30.9737 8.3006 31.8317 8.7002C32.6432 9.05918 33.3392 9.63632 33.8422 10.3674C34.3252 11.0809 34.5667 11.9087 34.5667 12.8506V13.1768C34.5673 13.2116 34.5609 13.2462 34.5478 13.2784C34.5347 13.3106 34.5152 13.3399 34.4904 13.3643C34.467 13.3893 34.4386 13.4091 34.407 13.4224C34.3755 13.4357 34.3414 13.4421 34.3072 13.4414H31.824C31.7897 13.4421 31.7557 13.4357 31.7242 13.4224C31.6926 13.4091 31.6642 13.3893 31.6407 13.3643C31.6162 13.3398 31.5968 13.3105 31.5839 13.2783C31.5709 13.2461 31.5646 13.2116 31.5654 13.1768V12.9996C31.5654 12.3825 31.3165 11.8567 30.8187 11.4223C30.3209 10.9879 29.6402 10.7707 28.7765 10.7707C28.0983 10.7707 27.5686 10.9177 27.1872 11.2117C26.8059 11.5057 26.615 11.9104 26.6144 12.4259C26.6041 12.7663 26.7238 13.0979 26.9492 13.3532C27.173 13.6032 27.5046 13.8276 27.9442 14.0263C28.3837 14.2249 29.0645 14.4935 29.9864 14.832C30.807 15.1283 31.6116 15.4673 32.3968 15.8476C33.0109 16.167 33.549 16.6147 33.975 17.1602C34.4431 17.7419 34.6774 18.496 34.678 19.4225C34.678 20.8063 34.1808 21.8989 33.1863 22.7004C32.1919 23.5018 30.8444 23.9014 29.1438 23.8991C27.9856 23.9026 26.974 23.7165 26.1092 23.3409Z" fill="#008985"/>
<path d="M39.3496 23.1516C38.5279 22.7317 37.8443 22.0843 37.3802 21.2867C36.9115 20.4841 36.6775 19.5607 36.678 18.5166V8.45105C36.6774 8.41646 36.6837 8.3821 36.6967 8.35002C36.7096 8.31795 36.7289 8.28882 36.7534 8.26438C36.777 8.23934 36.8055 8.21949 36.8372 8.20607C36.8689 8.19266 36.9031 8.18598 36.9375 8.18646H39.4669C39.5012 8.1861 39.5352 8.19283 39.5667 8.20625C39.5982 8.21966 39.6267 8.23945 39.6502 8.26438C39.6748 8.28874 39.6943 8.31784 39.7074 8.34992C39.7204 8.382 39.7269 8.4164 39.7264 8.45105V18.538C39.7264 19.3184 39.9604 19.9463 40.4285 20.4218C40.8966 20.8973 41.5129 21.1365 42.2772 21.1394C43.041 21.1394 43.657 20.9002 44.1251 20.4218C44.5932 19.9435 44.8275 19.3155 44.8281 18.538V8.45105C44.8274 8.41646 44.8338 8.3821 44.8467 8.35002C44.8597 8.31795 44.879 8.28882 44.9034 8.26438C44.9271 8.23934 44.9556 8.21949 44.9873 8.20607C45.019 8.19266 45.0531 8.18598 45.0875 8.18646H47.6187C47.653 8.1861 47.6869 8.19283 47.7185 8.20625C47.75 8.21966 47.7784 8.23945 47.8019 8.26438C47.8266 8.28874 47.846 8.31784 47.8591 8.34992C47.8722 8.382 47.8787 8.4164 47.8782 8.45105V18.5166C47.8782 19.5613 47.6438 20.4846 47.1751 21.2867C46.7109 22.0842 46.0273 22.7316 45.2057 23.1516C44.362 23.5929 43.3855 23.8136 42.2764 23.8136C41.1672 23.8136 40.1916 23.5929 39.3496 23.1516Z" fill="#008985"/>
<path d="M59.95 23.5042L59.3018 21.3413C59.2727 21.2831 59.2368 21.2557 59.1931 21.2557H53.8756C53.8319 21.2557 53.796 21.2856 53.7677 21.3413L53.1443 23.5042C53.1317 23.5687 53.0963 23.6265 53.0445 23.6671C52.9928 23.7076 52.9283 23.7282 52.8626 23.7252H50.114C50.0778 23.7279 50.0414 23.7223 50.0077 23.7088C49.974 23.6953 49.9439 23.6742 49.9196 23.6472C49.897 23.6136 49.8832 23.5748 49.8793 23.5345C49.8754 23.4941 49.8816 23.4534 49.8973 23.416L54.5675 8.49539C54.5798 8.43089 54.615 8.37301 54.6666 8.33242C54.7182 8.29182 54.7827 8.27124 54.8483 8.27447H58.2426C58.3082 8.27142 58.3726 8.29207 58.4242 8.33263C58.4758 8.3732 58.511 8.43097 58.5235 8.49539L63.1928 23.416C63.2082 23.4508 63.2155 23.4885 63.2142 23.5265C63.2142 23.6584 63.1354 23.7252 62.977 23.7252H60.2309C60.1653 23.7284 60.1008 23.7078 60.0492 23.6672C59.9975 23.6266 59.9623 23.5687 59.95 23.5042ZM54.6325 18.8469H58.437C58.5226 18.8469 58.5517 18.8033 58.5226 18.7142L56.578 12.1594C56.5634 12.1012 56.542 12.0738 56.5129 12.0823C56.4838 12.0909 56.4624 12.1157 56.4479 12.1594L54.5461 18.7142C54.5315 18.8033 54.5598 18.8469 54.6325 18.8469Z" fill="#008985"/>
<path d="M73.9792 8.35257C74.0029 8.32762 74.0315 8.30782 74.0632 8.29441C74.0948 8.281 74.1289 8.27428 74.1633 8.27465H76.6928C76.7272 8.27433 76.7613 8.28108 76.7929 8.29448C76.8246 8.30789 76.8532 8.32766 76.8769 8.35257C76.9014 8.37701 76.9207 8.40614 76.9336 8.43822C76.9466 8.47029 76.9529 8.50465 76.9522 8.53924V23.4608C76.9529 23.4953 76.9466 23.5297 76.9336 23.5618C76.9207 23.5939 76.9014 23.623 76.8769 23.6474C76.8533 23.6725 76.8247 23.6923 76.793 23.7057C76.7613 23.7191 76.7272 23.7258 76.6928 23.7253H74.2498C74.1875 23.7301 74.1252 23.7157 74.0712 23.6842C74.0173 23.6527 73.9741 23.6055 73.9476 23.549L68.3484 14.1025C68.3192 14.058 68.2901 14.04 68.2627 14.0468C68.2353 14.0537 68.2191 14.0871 68.2191 14.1462L68.2627 23.4608C68.2633 23.4954 68.2568 23.5298 68.2437 23.5619C68.2306 23.594 68.2112 23.6231 68.1865 23.6474C68.1631 23.6725 68.1347 23.6924 68.1032 23.7059C68.0716 23.7193 68.0376 23.7259 68.0033 23.7253H65.4738C65.4394 23.7259 65.4052 23.7193 65.3735 23.7059C65.3418 23.6925 65.3133 23.6725 65.2897 23.6474C65.2652 23.623 65.246 23.5939 65.233 23.5618C65.2201 23.5297 65.2137 23.4953 65.2144 23.4608V8.53924C65.2137 8.50465 65.2201 8.47029 65.233 8.43822C65.246 8.40614 65.2652 8.37701 65.2897 8.35257C65.3134 8.32762 65.342 8.30782 65.3736 8.29441C65.4053 8.281 65.4394 8.27428 65.4738 8.27465H67.9168C67.9791 8.26994 68.0414 8.28429 68.0954 8.31579C68.1494 8.3473 68.1925 8.39446 68.2191 8.45104L73.7969 17.8538C73.826 17.8984 73.8542 17.9172 73.8825 17.9095C73.9107 17.9018 73.9253 17.8693 73.9253 17.8102L73.9039 8.53924C73.9032 8.50465 73.9096 8.47029 73.9225 8.43822C73.9355 8.40614 73.9548 8.37701 73.9792 8.35257Z" fill="#008985"/>
<path d="M81.6333 23.221C80.8055 22.7863 80.1192 22.1241 79.6553 21.3124C79.1872 20.4949 78.9529 19.5493 78.9523 18.4755V13.5314C78.9523 12.4576 79.1866 11.5085 79.6553 10.6842C80.115 9.86898 80.8024 9.20541 81.6333 8.77472C82.4833 8.32717 83.4635 8.10283 84.5738 8.10168C85.6681 8.10168 86.6385 8.3226 87.4851 8.76444C88.2936 9.17257 88.9748 9.79449 89.4546 10.5626C89.9224 11.3227 90.1652 12.1997 90.155 13.0921V13.2462C90.1557 13.281 90.1492 13.3156 90.1361 13.3478C90.123 13.38 90.1035 13.4093 90.0788 13.4337C90.0554 13.4587 90.0269 13.4785 89.9954 13.4918C89.9638 13.505 89.9298 13.5115 89.8955 13.5108H87.3652C87.331 13.5115 87.297 13.505 87.2654 13.4918C87.2338 13.4785 87.2054 13.4587 87.182 13.4337C87.1574 13.4092 87.1381 13.3799 87.1251 13.3477C87.1122 13.3155 87.1059 13.2809 87.1066 13.2462V13.1777C87.1139 12.8601 87.0562 12.5444 86.9371 12.2499C86.818 11.9554 86.64 11.6884 86.4139 11.4651C85.9532 11.0022 85.341 10.7704 84.5772 10.7699C83.7991 10.7699 83.1758 11.0165 82.7071 11.5097C82.2384 12.0029 82.0041 12.6465 82.0041 13.4406V18.5611C82.0041 19.3558 82.2564 19.9994 82.761 20.492C83.2657 20.9847 83.907 21.2313 84.6851 21.2319C85.4346 21.2319 86.034 21.0295 86.4833 20.6248C86.9325 20.22 87.156 19.6572 87.1537 18.9362V17.9429C87.156 17.9281 87.1548 17.913 87.1502 17.8988C87.1456 17.8846 87.1378 17.8717 87.1273 17.861C87.1168 17.8504 87.104 17.8423 87.0899 17.8375C87.0757 17.8327 87.0606 17.8313 87.0458 17.8333H84.6243C84.59 17.834 84.5559 17.8274 84.5243 17.8139C84.4927 17.8005 84.4644 17.7806 84.441 17.7554C84.4163 17.7309 84.3968 17.7017 84.3837 17.6694C84.3706 17.6372 84.3642 17.6026 84.3648 17.5679V15.5402C84.3641 15.5052 84.3704 15.4705 84.3835 15.4381C84.3966 15.4057 84.4162 15.3764 84.441 15.3518C84.4647 15.3272 84.4932 15.3077 84.5247 15.2946C84.5562 15.2815 84.5901 15.275 84.6243 15.2756H89.8998C89.934 15.2751 89.9678 15.2816 89.9994 15.2947C90.0309 15.3078 90.0594 15.3272 90.0831 15.3518C90.1077 15.3765 90.1272 15.4059 90.1402 15.4383C90.1533 15.4706 90.1598 15.5053 90.1593 15.5402V18.4515C90.1593 19.5698 89.9286 20.5403 89.4674 21.3629C89.0191 22.173 88.3373 22.8294 87.5108 23.2467C86.6677 23.6811 85.6912 23.8983 84.5815 23.8983C83.4717 23.8983 82.489 23.6725 81.6333 23.221Z" fill="#008985"/>
<path d="M94.8395 23.221C94.0117 22.7863 93.3254 22.1241 92.8615 21.3124C92.3928 20.4949 92.1587 19.5493 92.1593 18.4755V13.5314C92.1593 12.4576 92.3934 11.5085 92.8615 10.6842C93.3212 9.86898 94.0085 9.20541 94.8395 8.77472C95.6906 8.32717 96.6705 8.10283 97.7791 8.10168C98.8751 8.10168 99.8455 8.3226 100.69 8.76444C101.499 9.17307 102.18 9.79489 102.66 10.5626C103.128 11.3221 103.371 12.1984 103.362 13.0904V13.2445C103.363 13.2793 103.356 13.3138 103.343 13.3461C103.33 13.3783 103.311 13.4076 103.286 13.432C103.262 13.4571 103.234 13.4769 103.202 13.4902C103.17 13.5034 103.136 13.5099 103.102 13.5091H100.572C100.538 13.5098 100.504 13.5033 100.473 13.49C100.441 13.4768 100.413 13.457 100.39 13.432C100.365 13.4076 100.345 13.3784 100.332 13.3462C100.319 13.3139 100.312 13.2793 100.313 13.2445V13.1777C100.32 12.8603 100.263 12.5446 100.144 12.2502C100.025 11.9557 99.8474 11.6886 99.6218 11.4651C99.1605 11.0022 98.5477 10.7704 97.7833 10.7699C97.0058 10.7699 96.3828 11.0165 95.9141 11.5097C95.4454 12.0029 95.2114 12.6465 95.2119 13.4406V18.5611C95.2119 19.3558 95.464 19.9994 95.968 20.492C96.4721 20.9847 97.1135 21.2313 97.8921 21.2319C98.6416 21.2319 99.241 21.0295 99.6903 20.6248C100.14 20.22 100.363 19.6572 100.36 18.9362V17.9429C100.362 17.9281 100.361 17.913 100.356 17.8988C100.352 17.8846 100.344 17.8717 100.333 17.861C100.323 17.8504 100.31 17.8423 100.296 17.8375C100.282 17.8327 100.267 17.8313 100.252 17.8333H97.8304C97.7962 17.8338 97.7621 17.8271 97.7306 17.8137C97.699 17.8003 97.6706 17.7804 97.6472 17.7554C97.6225 17.7309 97.6029 17.7017 97.5898 17.6694C97.5767 17.6372 97.5703 17.6026 97.571 17.5679V15.5402C97.5702 15.5052 97.5766 15.4705 97.5897 15.4381C97.6028 15.4057 97.6224 15.3764 97.6472 15.3518C97.671 15.3273 97.6995 15.3079 97.731 15.2948C97.7625 15.2817 97.7963 15.2752 97.8304 15.2756H103.105C103.139 15.275 103.173 15.2815 103.205 15.2946C103.237 15.3077 103.265 15.3272 103.289 15.3518C103.314 15.3765 103.333 15.4059 103.346 15.4383C103.359 15.4706 103.366 15.5053 103.365 15.5402V18.4515C103.365 19.5698 103.135 20.5403 102.673 21.3629C102.225 22.173 101.543 22.8294 100.717 23.2467C99.8744 23.6811 98.8977 23.8983 97.7868 23.8983C96.6759 23.8983 95.6935 23.6725 94.8395 23.221Z" fill="#008985"/>
<path d="M115.438 23.5042L114.789 21.3413C114.76 21.2831 114.724 21.2557 114.681 21.2557H109.363C109.32 21.2557 109.283 21.2856 109.255 21.3413L108.628 23.5042C108.615 23.5688 108.58 23.6268 108.529 23.6674C108.477 23.7081 108.412 23.7286 108.347 23.7252H105.601C105.565 23.7279 105.529 23.7223 105.495 23.7088C105.462 23.6953 105.431 23.6742 105.407 23.6472C105.384 23.6136 105.37 23.5749 105.367 23.5345C105.363 23.4941 105.369 23.4534 105.385 23.416L110.055 8.49538C110.067 8.43097 110.103 8.37319 110.154 8.33263C110.206 8.29206 110.27 8.27142 110.336 8.27447H113.73C113.796 8.27142 113.86 8.29206 113.912 8.33263C113.963 8.37319 113.998 8.43097 114.011 8.49538L118.68 23.416C118.696 23.4507 118.704 23.4885 118.703 23.5265C118.703 23.6584 118.623 23.7252 118.464 23.7252H115.719C115.654 23.7284 115.589 23.7079 115.537 23.6673C115.485 23.6267 115.45 23.5688 115.438 23.5042ZM110.12 18.8469H113.924C114.01 18.8469 114.04 18.8033 114.01 18.7142L112.065 12.1594C112.05 12.1012 112.029 12.0738 112 12.0823C111.983 12.0885 111.968 12.0988 111.957 12.1123C111.946 12.1259 111.938 12.1421 111.935 12.1594L110.033 18.7142C110.019 18.8033 110.047 18.8469 110.12 18.8469Z" fill="#008985"/>
</svg>
