<svg id="Layer_1" data-name="Layer 1" xmlns="http://www.w3.org/2000/svg" viewBox="0 0 50 50"><defs><style>.cls-1{fill:#00a0a0;}.cls-2{fill:#008985;}.cls-3{fill:#ffb000;}</style></defs><title>logo</title><path class="cls-1" d="M29.22,28h0Z"/><path class="cls-1" d="M29.23,28h0v0h0v0Z"/><path class="cls-1" d="M29.22,28v0h0Z"/><path class="cls-1" d="M29.23,28h0v0h0v0Z"/><path class="cls-2" d="M20.79,22h0l2.38,2.37a3.4,3.4,0,0,1,0,4.8L18.39,34,16,31.58a3.4,3.4,0,0,1,0-4.8L20.76,22l0,0Z"/><path class="cls-2" d="M34,32.75a3.4,3.4,0,0,1,0,4.8L31.61,40l-4.79-4.79a3.4,3.4,0,0,1,0-4.8L29.2,28v0h0v0Z"/><path class="cls-2" d="M29.21,28h0l-2.38-2.37a3.4,3.4,0,0,1,0-4.8L31.61,16l2.4,2.4a3.4,3.4,0,0,1,0,4.8L29.24,28h0Z"/><path class="cls-3" d="M23.18,19.64,20.8,22v0h0v0L16,17.25a3.4,3.4,0,0,1,0-4.8l2.4-2.4,4.79,4.79A3.4,3.4,0,0,1,23.18,19.64Z"/></svg>