<svg width="19" height="18" viewBox="0 0 19 18" fill="none" xmlns="http://www.w3.org/2000/svg">
<path d="M7.90306 0.312C8.0202 0.445445 8.09197 0.608756 8.10908 0.780833C8.1262 0.952909 8.08787 1.12584 7.99907 1.27729C7.30526 2.4715 6.94293 3.8101 6.94541 5.16995C6.94541 9.69377 10.8792 13.3569 15.7275 13.3569C16.36 13.3569 16.9756 13.295 17.5672 13.1769C17.7486 13.1401 17.9375 13.1542 18.1104 13.2174C18.2833 13.2806 18.4324 13.3902 18.5393 13.5324C18.6521 13.6803 18.7096 13.859 18.7029 14.0407C18.6961 14.2224 18.6255 14.3969 18.5021 14.5371C17.5609 15.621 16.3735 16.4943 15.0265 17.0934C13.6795 17.6925 12.2069 18.0022 10.716 18C5.1837 18 0.702637 13.8216 0.702637 8.67335C0.702637 4.79869 3.23959 1.4753 6.8518 0.06674C7.03173 -0.00455218 7.23149 -0.0191846 7.42105 0.0250408C7.61062 0.0692663 7.77975 0.169961 7.90306 0.312Z" fill="#008985"/>
</svg>
