<svg width="120" height="120" viewBox="0 0 120 120" fill="none" xmlns="http://www.w3.org/2000/svg">
<path d="M60 29.5934C26.8642 29.5934 0 43.2072 0 60C0 76.7928 26.8642 90.4065 60 90.4065C93.1358 90.4065 120 76.7928 120 60C120 43.2072 93.1358 29.5934 60 29.5934ZM44.3877 65.9239C42.9558 67.2635 41.3658 67.8164 39.6147 68.3861C37.8636 68.9567 35.6353 68.8388 32.9257 68.8388H26.7846L25.0827 78.6597H17.9124L24.3107 45.2686H38.0993C42.2477 45.2686 45.2735 46.4618 47.1758 48.6391C49.0781 50.8164 49.6497 53.9071 48.8915 57.8089C48.5783 59.4166 48.0509 60.9113 47.3064 62.2431C46.561 63.5758 45.5878 64.8201 44.3877 65.9239ZM65.3171 68.8388L68.1465 54.677C68.4686 53.0193 68.3507 51.7877 67.7919 51.1857C67.2321 50.5827 66.0418 50.179 64.222 50.179H58.5357L54.8715 68.8388H47.7572L54.1556 36.4297H61.2698L59.5689 45.2686H65.9063C69.8946 45.2686 72.6445 46.069 74.1579 47.4596C75.6713 48.8503 76.125 50.7555 75.52 53.8707L72.5433 68.8388H65.3171ZM104.855 57.861C104.543 59.4687 104.014 60.9379 103.271 62.2686C102.527 63.6013 101.554 64.8201 100.353 65.9239C98.9213 67.2635 97.3303 67.8164 95.5803 68.3861C93.8302 68.9567 91.5998 68.8388 88.8902 68.8388H82.7492L81.0482 78.6597H73.878L80.2753 45.2686H94.0649C98.2132 45.2686 101.239 46.4618 103.14 48.6391C105.041 50.8164 105.613 53.9601 104.855 57.861ZM91.3474 50.179H86.436L83.7578 63.9283H88.1203C91.0096 63.9283 93.1643 63.6435 94.5785 62.5534C95.9947 61.4652 96.9483 59.7761 97.4443 57.2295C97.9196 54.7831 97.7035 52.8749 96.7961 51.8692C95.8877 50.8636 94.0718 50.179 91.3474 50.179ZM35.3829 50.179H30.4704L27.7923 63.9283H32.1537C35.044 63.9283 37.1978 63.6435 38.613 62.5534C40.0282 61.4652 40.9827 59.7761 41.4777 57.2295C41.9531 54.7831 41.737 52.8749 40.8295 51.8692C39.9221 50.8636 38.1072 50.179 35.3829 50.179Z" fill="#6181B6"/>
</svg>
