<svg width="121" height="121" viewBox="0 0 121 121" fill="none" xmlns="http://www.w3.org/2000/svg">
<path d="M60.3125 71.5203C66.3471 71.5203 71.239 66.6283 71.239 60.5938C71.239 54.5592 66.3471 49.6672 60.3125 49.6672C54.278 49.6672 49.386 54.5592 49.386 60.5938C49.386 66.6283 54.278 71.5203 60.3125 71.5203Z" fill="#61DAFB"/>
<path d="M101.814 42.5746C99.7055 41.8078 97.501 41.0411 95.2007 40.3701C95.7758 38.0698 96.255 35.7695 96.6384 33.565C98.6512 20.9133 96.4467 11.9995 90.3125 8.54905C88.4914 7.49474 86.4786 7.0155 84.1783 7.0155C77.4691 7.0155 68.9387 11.9995 60.3125 20.3382C51.6863 11.9995 43.1559 7.0155 36.4467 7.0155C34.1464 7.0155 32.1336 7.49474 30.3125 8.54905C24.1783 12.0954 21.9738 21.0091 23.9866 33.565C24.37 35.7695 24.8492 38.0698 25.4243 40.3701C23.124 41.0411 20.9195 41.712 18.8109 42.5746C6.83007 47.1752 0.3125 53.5011 0.3125 60.5938C0.3125 67.6864 6.92592 74.0123 18.8109 78.613C20.9195 79.3797 23.124 80.1465 25.4243 80.8174C24.8492 83.1177 24.37 85.4181 23.9866 87.6225C21.9738 100.274 24.1783 109.188 30.3125 112.639C32.1336 113.693 34.1464 114.172 36.4467 114.172C43.2518 114.172 51.7821 109.188 60.3125 100.849C68.9387 109.188 77.4691 114.172 84.1783 114.172C86.4786 114.172 88.4914 113.693 90.3125 112.639C96.4467 109.092 98.6512 100.178 96.6384 87.6225C96.255 85.4181 95.7758 83.1177 95.2007 80.8174C97.501 80.1465 99.7055 79.4756 101.814 78.613C113.795 74.0123 120.312 67.6864 120.312 60.5938C120.312 53.5011 113.795 47.1752 101.814 42.5746ZM87.6288 13.3414C91.5585 15.6417 92.9004 22.7344 91.271 32.7983C90.9834 34.811 90.5042 36.9197 89.9291 39.1241C84.9451 37.974 79.6735 37.2072 74.1144 36.728C70.8556 32.1273 67.501 28.0059 64.1464 24.2679C71.239 17.2711 78.4275 12.4788 84.2742 12.4788C85.5202 12.4788 86.6703 12.7663 87.6288 13.3414ZM76.894 70.1784C75.1687 73.2455 73.1559 76.3126 71.0473 79.3797C67.501 79.6673 63.9547 79.7631 60.3125 79.7631C56.5745 79.7631 53.0282 79.6673 49.5777 79.3797C47.469 76.3126 45.5521 73.2455 43.8269 70.1784C42.0058 67.0155 40.2806 63.7567 38.747 60.5938C40.2806 57.4308 42.0058 54.1721 43.8269 51.0091C45.5521 47.942 47.5649 44.8749 49.6735 41.8078C53.2198 41.5203 56.7662 41.4245 60.4083 41.4245C64.1464 41.4245 67.6927 41.5203 71.1432 41.8078C73.2518 44.8749 75.1687 47.942 76.894 51.0091C78.7151 54.1721 80.4403 57.4308 81.9738 60.5938C80.3444 63.7567 78.7151 66.9197 76.894 70.1784ZM84.8492 67.0155C86.2869 70.3701 87.4371 73.6289 88.4914 76.8877C85.2326 77.6545 81.7821 78.2296 78.14 78.7088C79.2901 76.8877 80.5361 74.9708 81.5905 72.958C82.7406 70.9452 83.7949 68.9324 84.8492 67.0155ZM60.3125 92.9899C58.0122 90.4979 55.8077 87.8142 53.6991 85.0347C55.9036 85.1305 58.108 85.2264 60.3125 85.2264C62.517 85.2264 64.7214 85.1305 66.9259 85.0347C64.8173 87.8142 62.6128 90.4979 60.3125 92.9899ZM42.485 78.613C38.8429 78.1337 35.3924 77.5586 32.1336 76.7919C33.1879 73.6289 34.3381 70.2743 35.7758 66.9197C36.8301 68.8366 37.8844 70.8494 39.0345 72.7663C40.1847 74.8749 41.3349 76.696 42.485 78.613ZM35.7758 54.1721C34.3381 50.8174 33.1879 47.5586 32.1336 44.2999C35.3924 43.5331 38.8429 42.958 42.485 42.4788C41.3349 44.2998 40.0889 46.2168 39.0345 48.2296C37.8844 50.2423 36.8301 52.2551 35.7758 54.1721ZM60.3125 28.1976C62.6128 30.6896 64.8173 33.3733 66.9259 36.1529C64.7214 36.057 62.517 35.9612 60.3125 35.9612C58.108 35.9612 55.9036 36.057 53.6991 36.1529C55.8077 33.3733 58.0122 30.6896 60.3125 28.1976ZM81.5905 48.3254L78.14 42.5746C81.7821 43.0538 85.2326 43.6289 88.4914 44.3957C87.4371 47.5586 86.2869 50.9133 84.8492 54.2679C83.7949 52.2551 82.7406 50.2423 81.5905 48.3254ZM29.354 32.7983C27.7246 22.7344 29.0665 15.6417 32.9962 13.3414C33.9547 12.7663 35.1048 12.4788 36.3508 12.4788C42.1016 12.4788 49.2901 17.1752 56.4786 24.2679C53.124 27.9101 49.7694 32.1273 46.5106 36.728C40.9515 37.2072 35.6799 38.0698 30.6959 39.1241C30.1208 36.9197 29.7374 34.811 29.354 32.7983ZM5.67991 60.5938C5.67991 56.089 11.1432 51.2967 20.7278 47.7503C22.6448 46.9836 24.7534 46.3126 26.862 45.7375C28.3956 50.5299 30.3125 55.6098 32.6128 60.6896C30.3125 65.7695 28.2997 70.7535 26.862 75.5459C13.6352 71.712 5.67991 65.9612 5.67991 60.5938ZM32.9962 107.846C29.0665 105.546 27.7246 98.4532 29.354 88.3893C29.6416 86.3765 30.1208 84.2679 30.6959 82.0634C35.6799 83.2136 40.9515 83.9804 46.5106 84.4596C49.7694 89.0602 53.124 93.1816 56.4786 96.9197C49.386 103.916 42.1975 108.709 36.3508 108.709C35.1048 108.709 33.9547 108.421 32.9962 107.846ZM91.271 88.3893C92.9004 98.4532 91.5585 105.546 87.6288 107.846C86.6703 108.421 85.5202 108.709 84.2742 108.709C78.5234 108.709 71.3349 104.012 64.1464 96.9197C67.501 93.2775 70.8556 89.0602 74.1144 84.4596C79.6735 83.9804 84.9451 83.1177 89.9291 82.0634C90.5042 84.2679 90.8876 86.3765 91.271 88.3893ZM99.8972 73.4372C97.9802 74.204 95.8716 74.8749 93.763 75.45C92.2294 70.6577 90.3125 65.5778 88.0122 60.4979C90.3125 55.4181 92.3253 50.434 93.763 45.6417C106.99 49.4756 114.945 55.2264 114.945 60.5938C114.945 65.0986 109.386 69.8909 99.8972 73.4372Z" fill="#61DAFB"/>
</svg>
