<svg width="120" height="120" viewBox="0 0 120 120" fill="none" xmlns="http://www.w3.org/2000/svg">
<path d="M99 45.06C94.5003 43.5102 90.5285 40.7237 87.54 37.02C84.2463 32.8934 80.0523 29.5748 75.279 27.3181C70.5057 25.0615 65.2794 23.9265 60 24C52.8982 23.497 45.8675 25.6875 40.308 30.135C34.7486 34.5826 31.0683 40.961 30 48C32.104 44.4795 35.2707 41.7172 39.0444 40.1107C42.818 38.5042 47.004 38.1363 51 39.06C55.4921 40.6548 59.4575 43.4576 62.46 47.16C65.7718 51.2536 69.9737 54.5379 74.746 56.7629C79.5183 58.9879 84.7353 60.095 90 60C97.1018 60.5029 104.132 58.3125 109.692 53.865C115.251 49.4174 118.932 43.039 120 36C117.934 39.5626 114.778 42.3666 110.996 43.998C107.215 45.6294 103.009 46.0017 99 45.06ZM21 74.94C25.4997 76.4897 29.4715 79.2763 32.46 82.98C35.7537 87.1066 39.9477 90.4252 44.721 92.6818C49.4943 94.9385 54.7206 96.0735 60 96C67.1018 96.5029 74.1325 94.3125 79.692 89.865C85.2514 85.4174 88.9317 79.039 90 72C87.896 75.5205 84.7293 78.2828 80.9556 79.8893C77.182 81.4958 72.996 81.8637 69 80.94C64.5079 79.3451 60.5425 76.5424 57.54 72.84C54.2193 68.7565 50.0157 65.4794 45.2454 63.2554C40.4752 61.0313 35.2626 59.9183 30 60C22.8982 59.497 15.8675 61.6875 10.308 66.135C4.74857 70.5826 1.06825 76.961 0 84C2.06584 80.4374 5.22245 77.6334 9.0038 76.002C12.7852 74.3706 16.9909 73.9983 21 74.94Z" fill="#38BDF8"/>
</svg>
