<svg width="19" height="18" viewBox="0 0 19 18" fill="none" xmlns="http://www.w3.org/2000/svg">
<g clip-path="url(#clip0_1_6316)">
<path d="M5.81576 7.55325L5.32639 9H4.07764L6.17239 3.375H7.61689L9.70264 9H8.38976L7.90039 7.55325H5.81576ZM7.65401 6.72525L6.89014 4.4505H6.83501L6.07114 6.72525H7.65401Z" fill="#008985"/>
<path d="M0.702637 2.25C0.702637 1.65326 0.93969 1.08097 1.36165 0.65901C1.7836 0.237053 2.3559 0 2.95264 0L10.8276 0C11.4244 0 11.9967 0.237053 12.4186 0.65901C12.8406 1.08097 13.0776 1.65326 13.0776 2.25V5.625H16.4526C17.0494 5.625 17.6217 5.86205 18.0436 6.28401C18.4656 6.70597 18.7026 7.27826 18.7026 7.875V15.75C18.7026 16.3467 18.4656 16.919 18.0436 17.341C17.6217 17.7629 17.0494 18 16.4526 18H8.57764C7.9809 18 7.4086 17.7629 6.98665 17.341C6.56469 16.919 6.32764 16.3467 6.32764 15.75V12.375H2.95264C2.3559 12.375 1.7836 12.1379 1.36165 11.716C0.93969 11.294 0.702637 10.7217 0.702637 10.125V2.25ZM2.95264 1.125C2.65427 1.125 2.36812 1.24353 2.15714 1.4545C1.94616 1.66548 1.82764 1.95163 1.82764 2.25V10.125C1.82764 10.4234 1.94616 10.7095 2.15714 10.9205C2.36812 11.1315 2.65427 11.25 2.95264 11.25H10.8276C11.126 11.25 11.4122 11.1315 11.6231 10.9205C11.8341 10.7095 11.9526 10.4234 11.9526 10.125V2.25C11.9526 1.95163 11.8341 1.66548 11.6231 1.4545C11.4122 1.24353 11.126 1.125 10.8276 1.125H2.95264ZM10.9829 12.3694C11.2 12.708 11.4351 13.0252 11.6916 13.3211C10.8501 13.968 9.80951 14.4473 8.57764 14.7746C8.77789 15.0188 9.08501 15.489 9.20201 15.75C10.4676 15.3461 11.542 14.8005 12.4488 14.0692C13.3229 14.8174 14.4051 15.3799 15.745 15.7252C15.8946 15.4395 16.2108 14.9681 16.4526 14.724C15.187 14.4394 14.1385 13.9432 13.2801 13.2795C14.0463 12.4391 14.6549 11.4221 15.1038 10.1779H16.4526V9H13.0776V10.1779H13.9383C13.5805 11.1274 13.1058 11.9171 12.5073 12.5741C12.342 12.398 12.1861 12.2133 12.0404 12.0206C11.7229 12.2242 11.3592 12.3441 10.9829 12.3694Z" fill="#008985"/>
</g>
<defs>
<clipPath id="clip0_1_6316">
<rect width="18" height="18" fill="white" transform="translate(0.702637)"/>
</clipPath>
</defs>
</svg>
